<svg width="39" height="39" viewBox="0 0 39 39" fill="none" xmlns="http://www.w3.org/2000/svg">
<path fill-rule="evenodd" clip-rule="evenodd" d="M19.5 3.25003C21.634 3.25002 23.747 3.67033 25.7186 4.48696C27.6901 5.30359 29.4815 6.50056 30.9905 8.00951C32.4994 9.51846 33.6964 11.3098 34.5131 13.2814C35.3297 15.2529 35.75 17.366 35.75 19.5C35.75 28.4746 28.4746 35.7501 19.5 35.7501C10.5254 35.7501 3.25 28.4746 3.25 19.5C3.25 10.5254 10.5254 3.25003 19.5 3.25003ZM21.125 21.1251H17.875C13.852 21.1251 10.3981 23.5616 8.90843 27.0396C11.2655 30.3448 15.1311 32.5 19.5 32.5C23.8689 32.5 27.7345 30.3448 30.0916 27.0394C28.6019 23.5616 25.148 21.1251 21.125 21.1251ZM19.5 8.12503C16.8076 8.12503 14.625 10.3077 14.625 13C14.625 15.6924 16.8076 17.875 19.5 17.875C22.1923 17.875 24.375 15.6924 24.375 13C24.375 10.3077 22.1924 8.12503 19.5 8.12503Z" fill="#F97319"/>
</svg>
