<svg id="Layer_1" data-name="Layer 1" xmlns="http://www.w3.org/2000/svg" viewBox="0 0 861.51 266.02"><defs><style>.cls-1{fill:#216a35;}.cls-2{fill:#10141e;}</style></defs><path class="cls-1" d="M431,23.19a22,22,0,0,0,.23,3.73c.26,3.3.31,3.64.35,4.79a34,34,0,0,1-.12,4.49,35.66,35.66,0,0,1-.75,4.62A38.31,38.31,0,0,1,426,52a44.19,44.19,0,0,1-6,7.5c-3.34,3.4-5.09,4.15-8,6.57a44.56,44.56,0,0,0-11.77,15.23,43.59,43.59,0,0,0-3.75,14.08,52.87,52.87,0,0,0-.12,8.88,40.67,40.67,0,0,0,1.73,10.33,42.05,42.05,0,0,0,4.85,9.8,68.45,68.45,0,0,0,4.79,6.75c3,3.92,2.51,2.65,9.92,10a5.1,5.1,0,0,0,3,1.58c.34,0,1.65.16,2.23-.66s-.12-2.3-.21-2.46a5.14,5.14,0,0,0-2.08-1.73l-3.1-2.58a54,54,0,0,1-8.44-8.78,27.41,27.41,0,0,1-5.25-10.91,22.8,22.8,0,0,1,.47-11.69c2-6.15,6.33-9.74,10-12.76a79.24,79.24,0,0,1,8-5.39c2.61-1.6,3.28-1.87,4.93-3a44,44,0,0,0,7.38-6.46A39.33,39.33,0,0,0,442.88,61a37.12,37.12,0,0,0-.85-21C438.81,30.07,432,22.68,431,23.19Zm7.5,38.74a30.41,30.41,0,0,1-3.92,7.85,34.12,34.12,0,0,1-5,5.82,46.74,46.74,0,0,1-5.48,4.16c-3.9,2.7-4.72,3-7.91,5.19-3.6,2.48-5.41,3.72-7.09,5.42A44,44,0,0,0,402.71,99c-1.48,2.56-1.74,3.6-2.08,3.52-1-.22-1.13-9.46,2.71-18a44.08,44.08,0,0,1,6.93-10.56,60.34,60.34,0,0,1,4.9-5c2.65-2.4,3.06-2.33,5.59-4.61a50.14,50.14,0,0,0,6.18-6.64,40.23,40.23,0,0,0,3.46-5.19,32.58,32.58,0,0,0,3.52-8.71c1.27-5.54.22-9.25,1-9.4,1-.2,3,6.14,3.11,6.52a35.7,35.7,0,0,1,1.9,11.54A29.56,29.56,0,0,1,438.53,61.93Z"/><path class="cls-1" d="M423.34,21a25.77,25.77,0,0,0-1.54-6.85c-.37-1.08-.79-2.1-1.54-2.23-.59-.1-1.09.4-2.61,1.77-.8.72-1.66,1.38-2.42,2.13a68.58,68.58,0,0,1-6.93,6c-1.51,1.13-2,1.32-4.92,3.46l-2.17,1.62a76.75,76.75,0,0,0-8,7.33,55.25,55.25,0,0,0-6.17,6.86A35.16,35.16,0,0,0,382,50.74c-1.44,4.32-1.57,7.73-1.73,11.94A54.06,54.06,0,0,0,381,74.22a42.65,42.65,0,0,0,1.38,5.54c.58,1.73,1,2.59,1.52,3.88,1.58,3.87,3.68,10.6,5.23,14.07.21.48.71,1.56,1.58,1.7a1.09,1.09,0,0,0,.88-.2c.41-.37.24-1.07,0-2.69-.1-.69-.15-1.39-.26-2.07a30.65,30.65,0,0,1-.24-4.66,46.47,46.47,0,0,1,2-11.53A41.16,41.16,0,0,1,402.19,62c3-3.16,3.76-2.88,9.15-8.23,4-3.94,6-5.91,7.69-8.92a34.05,34.05,0,0,0,4-12.69C423.59,28.68,423.51,26.1,423.34,21Zm-4.36,11a31.33,31.33,0,0,1-2.37,8.36c-1.49,3.19-3.29,5-6.92,8.54-7.8,7.7-11.72,11.58-12.63,12.8-5.19,7-6.16,12.91-6.87,12.69s-.29-8.2,3.46-16.09c3.54-7.45,9.86-14.3,11.08-15.63a53.5,53.5,0,0,0,5.54-6.87c.83-1.29,1.22-2.12,2.48-3.86.63-.89,1-1.46,1.67-2.6,1-1.58,1.14-2.05,1-2.54a1.87,1.87,0,0,0-1.9-1.15c-1,.14-1.48,1.31-1.79,2a64.73,64.73,0,0,1-4.16,6.52c-.95,1.52-1.09,1.32-5.3,5.88-2.48,2.69-4.37,4.74-5.94,6.7a43.36,43.36,0,0,0-6.18,9.74A49.28,49.28,0,0,0,386.33,75a6,6,0,0,1-.12,2c-.38,0-2.33-7.17-1.9-15.35a33.67,33.67,0,0,1,1.73-10c2.2-6.33,6-10.32,9.63-14.19a54.08,54.08,0,0,1,7.85-7.1c1.75-1.28,4.55-3.13,7.09-5.31,2-1.67,2.91-2.51,2.91-2.51l2.11-1.87c1.57-1.38,2.35-2.08,2.6-2,1.11.26,1.13,4,1.15,6.75A37.07,37.07,0,0,1,419,31.94Z"/><path class="cls-2" d="M68.6,111.61q23.6,0,39.17,16.79a51.44,51.44,0,0,1,14.36,36.41q.2,52.11,0,52.93H108.24V194.9q-10.92,20-39.64,22.38-23.49,0-38.37-15.73T15.36,164.81a52.06,52.06,0,0,1,14.08-36.32Q45,111.61,68.6,111.61Zm0,12.66A38,38,0,0,0,40.53,136.2,39.55,39.55,0,0,0,28.78,165a40.78,40.78,0,0,0,5.37,20.41A37.23,37.23,0,0,0,48.65,200a40.34,40.34,0,0,0,19.95,5.09q35-3.48,39.26-40.08a40,40,0,0,0-11.47-28.8A37.13,37.13,0,0,0,68.6,124.27Z"/><path class="cls-2" d="M249.05,194.35q0,21.18-3.82,31a40.22,40.22,0,0,1-17.95,21.33q-12.83,7.47-30.73,7.47a71.11,71.11,0,0,1-23.69-3.67,48,48,0,0,1-17.06-9.81q-6.63-6.15-12.13-18h14.27A37.51,37.51,0,0,0,173,237.46q9.18,4.77,22.89,4.77,13.44,0,22.71-4.95t13.2-12.39q3.91-7.42,3.91-24.12v-5.14a49,49,0,0,1-18.13,14.22,54.58,54.58,0,0,1-49.24-1.93,49,49,0,0,1-19.21-18.57,51.77,51.77,0,0,1,.28-51.64,51.15,51.15,0,0,1,19.53-19.08,52.76,52.76,0,0,1,26.21-7,60.15,60.15,0,0,1,21,3.49Q224.05,118,234.88,126q9.13,7.44,14.36,28.35Q249,157.1,249.05,194.35Zm-52.22-70.26a41.93,41.93,0,0,0-20.75,5.32,39.13,39.13,0,0,0-15,14.67,39.64,39.64,0,0,0-5.45,20.28q0,16.59,11.28,27.42t29.19,10.82q18.28,0,29.28-10.73t11-28.25a40.22,40.22,0,0,0-5.08-20.27,36.92,36.92,0,0,0-14.37-14.08A40.55,40.55,0,0,0,196.83,124.09Z"/><path class="cls-2" d="M272,171.14V159a53.49,53.49,0,0,1,4.29-14.77q6.53-15.78,17.53-23.12t18.28-7.33a23.66,23.66,0,0,1,11.56,3.48l-6.8,10.82q-8.69-3.11-17.21,5A44.4,44.4,0,0,0,287.84,151q-2.41,8.53-2.42,32v34H272Z"/><path class="cls-2" d="M339.41,75.2a10.68,10.68,0,0,1,7.7,3.12,10.1,10.1,0,0,1,3.21,7.52,10.25,10.25,0,0,1-3.21,7.57,10.59,10.59,0,0,1-7.7,3.16,10.41,10.41,0,0,1-7.64-3.16,10.29,10.29,0,0,1-3.17-7.57,10.13,10.13,0,0,1,3.17-7.52A10.49,10.49,0,0,1,339.41,75.2Zm-6.52,41.37H346V217.19H332.89Z"/><path class="cls-1" d="M363.57,116.75h14L411.78,190l33.94-73.2H459.8L413,217.37h-2.33Z"/><path class="cls-2" d="M484.42,75.2a10.68,10.68,0,0,1,7.7,3.12,10.1,10.1,0,0,1,3.21,7.52,10.25,10.25,0,0,1-3.21,7.57,10.59,10.59,0,0,1-7.7,3.16,10.41,10.41,0,0,1-7.64-3.16,10.3,10.3,0,0,1-3.18-7.57,10.14,10.14,0,0,1,3.18-7.52A10.49,10.49,0,0,1,484.42,75.2Zm-6.53,41.37H491V217.19H477.89Z"/><path class="cls-2" d="M569.66,125.19l-8.4,8.62q-10.62-10.08-20.61-10.09a15.87,15.87,0,0,0-11,4.13,12.78,12.78,0,0,0-4.57,9.81,13.89,13.89,0,0,0,3.82,9.18q3.74,4.66,15.77,10.73,14.73,7.43,20,14.4a26.36,26.36,0,0,1,5.13,15.87,28,28,0,0,1-8.81,20.86q-8.82,8.58-22.06,8.58A40.07,40.07,0,0,1,522,213.57a35.23,35.23,0,0,1-13.29-10.42l8.3-9.26q10.06,11.19,21.35,11.19a19.27,19.27,0,0,0,13.39-5,15.31,15.31,0,0,0,5.54-11.69,15,15,0,0,0-3.63-9.91q-3.64-4.3-16.51-10.82-13.89-6.89-18.84-13.85a25.55,25.55,0,0,1-5-15.6,25.16,25.16,0,0,1,8-19q8-7.56,20-7.57Q555.3,111.61,569.66,125.19Z"/><path class="cls-2" d="M597.45,75.2a10.65,10.65,0,0,1,7.69,3.12,10.07,10.07,0,0,1,3.22,7.52,10.22,10.22,0,0,1-3.22,7.57,10.57,10.57,0,0,1-7.69,3.16,10.81,10.81,0,0,1-10.82-10.73,10.17,10.17,0,0,1,3.17-7.52A10.5,10.5,0,0,1,597.45,75.2Zm-6.53,41.37h13.15V217.19H590.92Z"/><path class="cls-2" d="M679.6,111.61q23.6,0,39.17,16.79a52.17,52.17,0,0,1,14.08,36.41q0,21-14.92,36.74T679.6,217.28q-23.49,0-38.37-15.73t-14.87-36.74a52.06,52.06,0,0,1,14.08-36.32Q656,111.61,679.6,111.61Zm0,12.66a38,38,0,0,0-28.07,11.93A39.55,39.55,0,0,0,639.78,165a40.78,40.78,0,0,0,5.37,20.41A37.23,37.23,0,0,0,659.65,200a41.94,41.94,0,0,0,40.05,0,37.15,37.15,0,0,0,14.41-14.58A41.14,41.14,0,0,0,719.42,165a39.51,39.51,0,0,0-11.75-28.8A38,38,0,0,0,679.6,124.27Z"/><path class="cls-2" d="M757,179l-.18-10.73a67.26,67.26,0,0,1,.65-13.39q2.06-17.34,8.95-25.41a57.52,57.52,0,0,1,13.71-10.92q11.57-4.86,26.39-4.58a41.78,41.78,0,0,1,21.4,5.73,32.67,32.67,0,0,1,14,15.41q4.2,9.68,4.2,30.32v51.73H833.1v-48q0-17.43-1.49-23.3-2.34-10-9.23-14.17T802,127.57a35.24,35.24,0,0,0-21.26,6.79q-9.33,6.79-8.67,18.53-1.77,7.52-1.77,27.43v36.87H757Z"/></svg>